<?xml version="1.0" encoding="UTF-8" standalone="no"?>
<!-- Created with Inkscape (http://www.inkscape.org/) -->

<svg
   width="48mm"
   height="48mm"
   viewBox="0 0 48 48.000001"
   version="1.1"
   id="svg1"
   xml:space="preserve"
   sodipodi:docname="logo.svg"
   inkscape:version="1.4.3 (0d15f75, 2025-12-25)"
   xmlns:inkscape="http://www.inkscape.org/namespaces/inkscape"
   xmlns:sodipodi="http://sodipodi.sourceforge.net/DTD/sodipodi-0.dtd"
   xmlns="http://www.w3.org/2000/svg"
   xmlns:svg="http://www.w3.org/2000/svg"><sodipodi:namedview
     id="namedview1"
     pagecolor="#ffffff"
     bordercolor="#666666"
     borderopacity="1.0"
     inkscape:showpageshadow="2"
     inkscape:pageopacity="0.0"
     inkscape:pagecheckerboard="0"
     inkscape:deskcolor="#d1d1d1"
     inkscape:document-units="mm"
     inkscape:zoom="4.1071317"
     inkscape:cx="103.84376"
     inkscape:cy="105.79159"
     inkscape:window-width="1920"
     inkscape:window-height="1017"
     inkscape:window-x="-8"
     inkscape:window-y="-8"
     inkscape:window-maximized="1"
     inkscape:current-layer="layer1" /><defs
     id="defs1" /><g
     inkscape:label="Layer 1"
     inkscape:groupmode="layer"
     id="layer1"
     transform="translate(-65.416692,-66.325133)"><path
       id="path21"
       style="baseline-shift:baseline;display:inline;overflow:visible;opacity:1;vector-effect:none;fill:#3b82f6;stroke-linecap:round;stroke-linejoin:round;paint-order:markers stroke fill;enable-background:accumulate;stop-color:#000000;stop-opacity:1;fill-opacity:1"
       d="m 99.924761,69.280308 c -7.385669,3.288423 -13.556441,5.225741 -21.069517,7.115945 -1.982967,0.498892 -3.758023,1.558024 -5.007876,3.302281 -4.187511,5.843964 -1.653985,11.137996 -7.274834,23.266586 -1.53305,3.308 0.330648,7.70787 3.490018,8.95009 4.714677,1.85375 20.093054,-2.1144 29.738986,-2.56848 2.705582,-0.12736 4.878422,-4.45437 5.428072,-6.6929 4.53075,-18.452044 6.1106,-18.428925 7.29467,-22.444145 1.0329,-3.502589 -0.19461,-7.738871 -3.12399,-10.028621 -1.895,-1.481227 -6.12383,-2.39308 -9.475529,-0.900756 z"
       sodipodi:nodetypes="ssssssssss" /><g
       id="g8"
       transform="matrix(0.42660322,0,0,0.42660322,39.50972,41.406043)"><circle
         style="fill:none;stroke:#ffffff;stroke-width:2.64583;stroke-linecap:round;stroke-linejoin:round;stroke-dasharray:none;stroke-opacity:1;paint-order:markers stroke fill"
         id="path3"
         cx="77.239609"
         cy="151.19429"
         r="10.5" /><circle
         style="fill:none;stroke:#ffffff;stroke-width:2.64583;stroke-linecap:round;stroke-linejoin:round;stroke-dasharray:none;stroke-opacity:1;paint-order:markers stroke fill"
         id="path3-2"
         cx="136.37724"
         cy="141.28011"
         r="12.819138" /><circle
         style="fill:none;stroke:#ffffff;stroke-width:2.64583;stroke-linecap:round;stroke-linejoin:round;stroke-dasharray:none;stroke-opacity:1;paint-order:markers stroke fill"
         id="circle3"
         cx="94.761627"
         cy="99.149124"
         r="13.463343" /><circle
         style="fill:none;stroke:#daaa00;stroke-width:2.64583;stroke-linecap:round;stroke-linejoin:round;stroke-dasharray:none;stroke-opacity:0;paint-order:markers stroke fill"
         id="circle4"
         cx="149.7767"
         cy="85.105461"
         r="17.457413" /><path
         style="fill:#f9f9f9;stroke:#ffffff;stroke-width:2.64583;stroke-linecap:butt;stroke-linejoin:miter;stroke-dasharray:none;stroke-opacity:1"
         d="m 87.674483,149.44493 36.060087,-6.04533 m 3.63467,-11.23904 -23.02207,-23.30719 m 3.45846,-13.033979 25.05714,-6.396321"
         id="path4"
         sodipodi:nodetypes="cccccc" /><path
         style="fill:none;stroke:#ffffff;stroke-width:2.64583;stroke-linecap:round;stroke-linejoin:round;stroke-dasharray:none;stroke-opacity:1;paint-order:markers stroke fill"
         id="circle5"
         sodipodi:type="arc"
         sodipodi:cx="149.7767"
         sodipodi:cy="85.105461"
         sodipodi:rx="17.457413"
         sodipodi:ry="17.457413"
         sodipodi:start="1.8325957"
         sodipodi:end="4.4505896"
         sodipodi:arc-type="arc"
         d="m 145.25839,101.96803 a 17.457413,17.457413 0 0 1 -12.9391,-16.862569 17.457413,17.457413 0 0 1 12.9391,-16.862566"
         sodipodi:open="true" /><path
         style="fill:none;stroke:#ffffff;stroke-width:2.64583;stroke-linecap:round;stroke-linejoin:round;stroke-dasharray:none;stroke-opacity:1;paint-order:markers stroke fill"
         id="path5"
         sodipodi:type="arc"
         sodipodi:cx="-149.7767"
         sodipodi:cy="85.105461"
         sodipodi:rx="17.457413"
         sodipodi:ry="17.457413"
         sodipodi:start="1.8325957"
         sodipodi:end="4.4505896"
         sodipodi:arc-type="arc"
         d="m -154.29501,101.96803 a 17.457413,17.457413 0 0 1 -12.93911,-16.862569 17.457413,17.457413 0 0 1 12.93911,-16.862566"
         sodipodi:open="true"
         transform="scale(-1,1)" /><path
         sodipodi:type="star"
         style="fill:#ffffff;fill-opacity:1;stroke:none;stroke-width:2.00214;stroke-linecap:round;stroke-linejoin:round;stroke-dasharray:none;stroke-opacity:1;paint-order:markers stroke fill"
         id="path6"
         inkscape:flatsided="false"
         sodipodi:sides="4"
         sodipodi:cx="43.805916"
         sodipodi:cy="145.97678"
         sodipodi:r1="11.209901"
         sodipodi:r2="4.4839606"
         sodipodi:arg1="1.5822901"
         sodipodi:arg2="2.3676882"
         inkscape:rounded="0"
         inkscape:randomized="0"
         d="m 43.677075,157.18594 -3.07803,-8.07518 -8.00229,-3.26283 8.075173,-3.07803 3.262829,-8.00228 3.07803,8.07517 8.002289,3.26283 -8.075172,3.07803 z"
         transform="matrix(1.3215031,0,0,1.3215031,91.887049,-107.8033)" /><path
         sodipodi:type="star"
         style="fill:#ffffff;fill-opacity:1;stroke:none;stroke-width:2.96576;stroke-linecap:round;stroke-linejoin:round;stroke-dasharray:none;stroke-opacity:1;paint-order:markers stroke fill"
         id="path7"
         inkscape:flatsided="false"
         sodipodi:sides="4"
         sodipodi:cx="43.805916"
         sodipodi:cy="145.97678"
         sodipodi:r1="11.209901"
         sodipodi:r2="4.4839606"
         sodipodi:arg1="1.5822901"
         sodipodi:arg2="2.3676882"
         inkscape:rounded="0"
         inkscape:randomized="0"
         d="m 43.677075,157.18594 -3.07803,-8.07518 -8.00229,-3.26283 8.075173,-3.07803 3.262829,-8.00228 3.07803,8.07517 8.002289,3.26283 -8.075172,3.07803 z"
         transform="matrix(0.89212748,0,0,0.89212748,55.681166,-31.080769)" /><path
         sodipodi:type="star"
         style="fill:#ffffff;fill-opacity:1;stroke:none;stroke-width:3.29529;stroke-linecap:round;stroke-linejoin:round;stroke-dasharray:none;stroke-opacity:1;paint-order:markers stroke fill"
         id="path7-7"
         inkscape:flatsided="false"
         sodipodi:sides="4"
         sodipodi:cx="43.805916"
         sodipodi:cy="145.97678"
         sodipodi:r1="11.209901"
         sodipodi:r2="4.4839606"
         sodipodi:arg1="1.5822901"
         sodipodi:arg2="2.3676882"
         inkscape:rounded="0"
         inkscape:randomized="0"
         d="m 43.677075,157.18594 -3.07803,-8.07518 -8.00229,-3.26283 8.075173,-3.07803 3.262829,-8.00228 3.07803,8.07517 8.002289,3.26283 -8.075172,3.07803 z"
         transform="matrix(0.80291473,0,0,0.80291473,101.20483,24.073202)" /><path
         sodipodi:type="star"
         style="fill:#ffffff;fill-opacity:1;stroke:none;stroke-width:4.2368;stroke-linecap:round;stroke-linejoin:round;stroke-dasharray:none;stroke-opacity:1;paint-order:markers stroke fill"
         id="path8"
         inkscape:flatsided="false"
         sodipodi:sides="4"
         sodipodi:cx="43.805916"
         sodipodi:cy="145.97678"
         sodipodi:r1="11.209901"
         sodipodi:r2="4.4839606"
         sodipodi:arg1="1.5822901"
         sodipodi:arg2="2.3676882"
         inkscape:rounded="0"
         inkscape:randomized="0"
         d="m 43.677075,157.18594 -3.07803,-8.07518 -8.00229,-3.26283 8.075173,-3.07803 3.262829,-8.00228 3.07803,8.07517 8.002289,3.26283 -8.075172,3.07803 z"
         transform="matrix(0.62448923,0,0,0.62448923,49.883286,60.033366)" /></g></g></svg>
